<!-- Save this content as github-logo.svg in your public directory -->
<svg xmlns="http://www.w3.org/2000/svg" width="80" height="80" viewBox="0 0 24 24">
  <path d="M12 0C5.37 0 0 5.37 0 12c0 5.33 3.44 9.85 8.21 11.45.6.11.82-.26.82-.58 0-.29-.01-1.06-.01-2.08-3.34.73-4.04-1.61-4.04-1.61-.55-1.39-1.35-1.77-1.35-1.77-1.11-.75.08-.73.08-.73 1.22.09 1.87 1.25 1.87 1.25 1.09 1.87 2.86 1.33 3.56 1.02.11-.79.43-1.33.78-1.64-2.67-.3-5.48-1.34-5.48-5.96 0-1.32.47-2.39 1.24-3.23-.12-.3-.54-1.52.12-3.18 0 0 1.01-.32 3.3 1.23.96-.27 1.98-.4 3-.4 1.02 0 2.04.14 3 .4 2.29-1.55 3.3-1.23 3.3-1.23.66 1.66.24 2.88.12 3.18.77.84 1.24 1.91 1.24 3.23 0 4.62-2.81 5.66-5.49 5.95.44.38.82 1.1.82 2.22 0 1.6-.01 2.89-.01 3.28 0 .32.22.69.82.58C20.56 21.85 24 17.33 24 12 24 5.37 18.63 0 12 0z"/>
</svg>
